<svg width="30" height="31" viewBox="0 0 30 31" fill="none" xmlns="http://www.w3.org/2000/svg">
<g clip-path="url(#clip0_1427_8025)">
<path d="M16.589 8.02974C16.589 8.33677 16.589 9.33749 16.589 10.7592H21.4771L20.9471 15.1166H16.589C16.589 21.8366 16.589 30.8417 16.589 30.8417H10.8043C10.8043 30.8417 10.8043 21.9558 10.8043 15.1166H7.79004V10.7592H10.8043C10.8043 9.03116 10.8043 7.80239 10.8043 7.46026C10.8043 5.83018 10.6815 5.05675 11.3741 3.79358C12.0671 2.53048 14.0218 0.860908 17.4026 0.901103C20.7842 0.942763 22.2096 1.26808 22.2096 1.26808L21.4771 5.91204C21.4771 5.91204 19.3178 5.34186 18.2579 5.54507C17.1994 5.74833 16.589 6.40036 16.589 8.02974Z" fill="white"/>
</g>
<defs>
<clipPath id="clip0_1427_8025">
<rect width="30" height="30" fill="white" transform="translate(0 0.871094)"/>
</clipPath>
</defs>
</svg>
