<svg width="30" height="31" viewBox="0 0 30 31" fill="none" xmlns="http://www.w3.org/2000/svg">
<path d="M15 26.1836C12.7887 26.1836 11.1975 26.1825 9.95687 26.0622C8.73047 25.9433 7.94594 25.7148 7.31984 25.3214C6.60426 24.8718 5.99917 24.2668 5.54953 23.5513C5.15625 22.9252 4.92766 22.1406 4.80891 20.9142C4.68859 19.6736 4.6875 18.0823 4.6875 15.8711C4.6875 13.6598 4.68859 12.0686 4.80891 10.828C4.92766 9.60156 5.15625 8.81703 5.54953 8.19094C5.99915 7.47534 6.60424 6.87025 7.31984 6.42062C7.94594 6.02734 8.73047 5.79875 9.95687 5.68C11.1973 5.55969 12.7886 5.55859 15 5.55859C17.2113 5.55859 18.8025 5.55969 20.0431 5.68C21.2695 5.79875 22.0541 6.02734 22.6802 6.42062C23.3957 6.87026 24.0007 7.47535 24.4503 8.19094C24.8438 8.81703 25.0722 9.60156 25.1911 10.828C25.3114 12.0686 25.3125 13.6598 25.3125 15.8711C25.3125 18.0823 25.3114 19.6736 25.1911 20.9142C25.0722 22.1406 24.8438 22.9252 24.4503 23.5513C24.0007 24.2668 23.3957 24.8718 22.6802 25.3214C22.0541 25.7148 21.2695 25.9433 20.0431 26.0622C18.8025 26.1825 17.2113 26.1836 15 26.1836Z" fill="white" stroke="black" stroke-width="1.875"/>
<path d="M15 20.5586C17.5888 20.5586 19.6875 18.4599 19.6875 15.8711C19.6875 13.2823 17.5888 11.1836 15 11.1836C12.4112 11.1836 10.3125 13.2823 10.3125 15.8711C10.3125 18.4599 12.4112 20.5586 15 20.5586Z" fill="white" stroke="black" stroke-width="1.875"/>
<path d="M21.0938 11.1836C21.8704 11.1836 22.5 10.554 22.5 9.77734C22.5 9.00069 21.8704 8.37109 21.0938 8.37109C20.3171 8.37109 19.6875 9.00069 19.6875 9.77734C19.6875 10.554 20.3171 11.1836 21.0938 11.1836Z" fill="black"/>
</svg>
