<svg width="30" height="31" viewBox="0 0 30 31" fill="none" xmlns="http://www.w3.org/2000/svg">
<path d="M20 11.1778V20.2461C20 24.7335 16.3624 28.3711 11.875 28.3711C7.38769 28.3711 3.75 24.7335 3.75 20.2461C3.75 15.7587 7.38769 12.1211 11.875 12.1211C12.5204 12.1211 13.1481 12.1963 13.75 12.3385V16.2921C13.1818 16.0221 12.546 15.8711 11.875 15.8711C9.45875 15.8711 7.5 17.8298 7.5 20.2461C7.5 22.6623 9.45875 24.6211 11.875 24.6211C14.2913 24.6211 16.25 22.6623 16.25 20.2461V3.37109H20C20 6.82287 22.7983 9.62109 26.25 9.62109V13.3711C23.8851 13.3711 21.712 12.5502 20 11.1778Z" fill="white"/>
</svg>
